<svg width="34" height="30" viewBox="0 0 34 30" fill="none" xmlns="http://www.w3.org/2000/svg">
<path d="M2.41699 12.916H27.1253L19.5628 3.83267C19.2092 3.40721 19.0391 2.85871 19.0899 2.30783C19.1407 1.75694 19.4082 1.24879 19.8337 0.895167C20.2591 0.541545 20.8076 0.371416 21.3585 0.422207C21.9094 0.472998 22.4175 0.740549 22.7712 1.166L33.1878 13.666C33.2579 13.7654 33.3206 13.8699 33.3753 13.9785C33.3753 14.0827 33.3753 14.1452 33.5212 14.2493C33.6156 14.4882 33.665 14.7425 33.667 14.9993C33.665 15.2562 33.6156 15.5105 33.5212 15.7493C33.5212 15.8535 33.5212 15.916 33.3753 16.0202C33.3206 16.1288 33.2579 16.2332 33.1878 16.3327L22.7712 28.8327C22.5753 29.0678 22.33 29.257 22.0527 29.3866C21.7755 29.5162 21.4731 29.5832 21.167 29.5827C20.6802 29.5836 20.2085 29.4141 19.8337 29.1035C19.6227 28.9286 19.4483 28.7138 19.3205 28.4714C19.1927 28.229 19.1139 27.9638 19.0888 27.6909C19.0636 27.4181 19.0926 27.1429 19.1739 26.8812C19.2552 26.6196 19.3874 26.3765 19.5628 26.166L27.1253 17.0827H2.41699C1.86446 17.0827 1.33455 16.8632 0.943851 16.4725C0.55315 16.0818 0.33366 15.5519 0.33366 14.9993C0.33366 14.4468 0.55315 13.9169 0.943851 13.5262C1.33455 13.1355 1.86446 12.916 2.41699 12.916Z" fill="#272727"/>
</svg>
