<svg width="34" height="30" viewBox="0 0 34 30" fill="none" xmlns="http://www.w3.org/2000/svg">
<path d="M31.583 12.916H6.87467L14.4372 3.83267C14.7908 3.40721 14.9609 2.85871 14.9101 2.30783C14.8593 1.75694 14.5918 1.24879 14.1663 0.895167C13.7409 0.541545 13.1924 0.371416 12.6415 0.422207C12.0906 0.472998 11.5825 0.740549 11.2288 1.166L0.812174 13.666C0.742093 13.7654 0.679423 13.8699 0.624674 13.9785C0.624674 14.0827 0.624675 14.1452 0.478841 14.2493C0.384411 14.4882 0.334968 14.7425 0.333008 14.9993C0.334968 15.2562 0.384411 15.5105 0.478841 15.7493C0.478841 15.8535 0.478841 15.916 0.624674 16.0202C0.679423 16.1288 0.742093 16.2332 0.812174 16.3327L11.2288 28.8327C11.4247 29.0678 11.67 29.257 11.9473 29.3866C12.2245 29.5162 12.5269 29.5832 12.833 29.5827C13.3198 29.5836 13.7915 29.4141 14.1663 29.1035C14.3773 28.9286 14.5517 28.7138 14.6795 28.4714C14.8073 28.229 14.8861 27.9638 14.9112 27.6909C14.9364 27.4181 14.9074 27.1429 14.8261 26.8812C14.7448 26.6196 14.6126 26.3765 14.4372 26.166L6.87467 17.0827H31.583C32.1355 17.0827 32.6654 16.8632 33.0561 16.4725C33.4468 16.0818 33.6663 15.5519 33.6663 14.9993C33.6663 14.4468 33.4468 13.9169 33.0561 13.5262C32.6654 13.1355 32.1355 12.916 31.583 12.916Z" fill="#888888"/>
</svg>