<svg width="43" height="37" viewBox="0 0 43 37" fill="none" xmlns="http://www.w3.org/2000/svg">
<path fill-rule="evenodd" clip-rule="evenodd" d="M31.2688 13.7936H40.25C41.2813 13.7936 42.125 14.6373 42.125 15.6686L42.0688 16.1748L37.3063 33.5561C36.8563 35.1311 35.4125 36.2936 33.6875 36.2936H9.3125C7.5875 36.2936 6.14375 35.1311 5.7125 33.5561L0.95 16.1748C0.89375 16.0061 0.875 15.8373 0.875 15.6686C0.875 14.6373 1.71875 13.7936 2.75 13.7936H11.7313L19.9438 1.5123C20.3 0.968555 20.9 0.706055 21.5 0.706055C22.1 0.706055 22.7 0.968555 23.0563 1.49355L31.2688 13.7936ZM26.75 13.7936L21.5 5.91855L16.25 13.7936H26.75ZM33.6875 32.5436L9.33125 32.5623L5.20625 17.5436H37.8125L33.6875 32.5436ZM17.75 25.0436C17.75 22.9811 19.4375 21.2936 21.5 21.2936C23.5625 21.2936 25.25 22.9811 25.25 25.0436C25.25 27.1061 23.5625 28.7936 21.5 28.7936C19.4375 28.7936 17.75 27.1061 17.75 25.0436Z" fill="#272727"/>
</svg>
