<svg width="19" height="25" viewBox="0 0 19 25" fill="none" xmlns="http://www.w3.org/2000/svg">
<path d="M5.21184 22.8178L6.46247 23.4324L7.74784 23.9345L9.63767 24.6041L11.201 23.9345L13.0074 23.0019C24.4206 16.2678 15.4392 5.98256 13.957 4.91123C14.4758 6.05908 14.5499 7.97217 13.5123 8.89046C11.8077 2.15637 7.5834 0.855469 7.5834 0.855469C8.10218 4.29904 5.80473 8.0487 3.58139 10.8801C3.50728 9.50265 3.43316 8.58436 2.69205 7.20694C2.54383 9.73222 0.691044 11.7218 0.172264 14.2471C-0.494738 17.6907 0.691044 20.1394 5.21184 22.8178Z" fill="#FD0E0E"/>
<path d="M6.6729 22.8324L7.487 23.2321L8.3237 23.5588L9.55389 23.9944L10.5715 23.5588L11.7474 22.9521C19.1768 18.5717 13.3304 11.8813 12.3655 11.1844C12.7032 11.931 12.7515 13.1755 12.0761 13.7728C10.9665 9.39236 8.21667 8.54614 8.21667 8.54614C8.55436 10.7861 7.05884 13.2253 5.61157 15.067C5.56332 14.171 5.51508 13.5737 5.03266 12.6777C4.93617 14.3204 3.73011 15.6146 3.39241 17.2573C2.95823 19.4973 3.73011 21.0901 6.6729 22.8324Z" fill="#FFE211"/>
</svg>
