<svg width="48" height="49" viewBox="0 0 48 49" fill="none" xmlns="http://www.w3.org/2000/svg">
<path fill-rule="evenodd" clip-rule="evenodd" d="M24 0.444336C10.7452 0.444336 0 11.1689 0 24.3984C0 37.6278 10.7452 48.3524 24 48.3524C37.2548 48.3524 48 37.6278 48 24.3984C48 11.1689 37.2548 0.444336 24 0.444336ZM10 24.3587C10 16.6757 16.2802 10.4252 23.9998 10.4252C31.7194 10.4252 37.9997 16.6757 37.9997 24.3587C37.9997 25.4471 37.9087 26.3282 37.7048 27.2126L37.7018 27.2273C37.7013 27.2299 37.6001 27.6376 37.5442 27.8155C37.1982 28.9168 36.5718 29.8342 35.7325 30.4682C34.9186 31.0832 33.9094 31.422 32.891 31.422C32.7652 31.422 32.6385 31.4169 32.5144 31.407C31.0682 31.2914 29.7966 30.534 29.0168 29.3262C27.6757 30.6683 25.8964 31.4067 23.9998 31.4067C20.0951 31.4067 16.9184 28.245 16.9184 24.3587C16.9184 20.4725 20.0951 17.3109 23.9998 17.3109C27.9045 17.3109 31.0812 20.4725 31.0812 24.3587V26.6307C31.087 27.9563 31.9808 28.4982 32.7444 28.5595C33.5041 28.6178 34.5152 28.1774 34.8674 26.7399C35.0411 25.9516 35.1294 25.1502 35.1294 24.3587C35.1294 18.2509 30.1367 13.2818 23.9998 13.2818C17.8629 13.2818 12.8703 18.2509 12.8703 24.3587C12.8703 30.4666 17.8629 35.4357 23.9998 35.4357C26.136 35.4357 28.2136 34.8285 30.0079 33.6796L30.04 33.659L31.9261 35.8413L31.8856 35.8689C29.5549 37.4544 26.828 38.2924 23.9998 38.2924C16.2802 38.2924 10 32.0418 10 24.3587Z" fill="white"/>
<path fill-rule="evenodd" clip-rule="evenodd" d="M28.211 24.3586C28.211 26.6696 26.3219 28.5498 23.9999 28.5498C21.6778 28.5498 19.7888 26.6696 19.7888 24.3586C19.7888 22.0476 21.6778 20.1675 23.9999 20.1675C26.3219 20.1675 28.211 22.0476 28.211 24.3586Z" fill="white"/>
</svg>
