<svg width="48" height="49" viewBox="0 0 48 49" fill="none" xmlns="http://www.w3.org/2000/svg">
<path fill-rule="evenodd" clip-rule="evenodd" d="M24 0.444336C10.7452 0.444336 0 11.1689 0 24.3984C0 37.6278 10.7452 48.3524 24 48.3524C37.2548 48.3524 48 37.6278 48 24.3984C48 11.1689 37.2548 0.444336 24 0.444336ZM18.7233 11.7001C20.0886 11.6381 20.5249 11.6229 24.0012 11.6229H23.9972C27.4746 11.6229 27.9092 11.6381 29.2746 11.7001C30.6373 11.7623 31.5679 11.9777 32.384 12.2936C33.2266 12.6196 33.9386 13.0561 34.6506 13.7668C35.3626 14.4769 35.8 15.1897 36.128 16.0299C36.4427 16.8423 36.6587 17.7706 36.7227 19.1307C36.784 20.4934 36.8 20.9289 36.8 24.3985C36.8 27.8681 36.784 28.3025 36.7227 29.6652C36.6587 31.0248 36.4427 31.9534 36.128 32.766C35.8 33.606 35.3626 34.3188 34.6506 35.0289C33.9394 35.7395 33.2264 36.1771 32.3848 36.5034C31.5703 36.8193 30.6391 37.0346 29.2765 37.0969C27.9111 37.1589 27.4762 37.1741 23.9996 37.1741C20.5236 37.1741 20.0876 37.1589 18.7222 37.0969C17.3598 37.0346 16.4294 36.8193 15.615 36.5034C14.7736 36.1771 14.0595 35.7395 13.3483 35.0289C12.6365 34.3188 12.1992 33.606 11.872 32.7657C11.5557 31.9534 11.34 31.025 11.2773 29.665C11.2155 28.3022 11.2 27.8681 11.2 24.3985C11.2 20.9289 11.216 20.4931 11.2771 19.1304C11.3384 17.7709 11.5544 16.8423 11.8717 16.0297C12.1997 15.1897 12.6371 14.4769 13.3491 13.7668C14.0606 13.0564 14.7747 12.6199 15.6166 12.2936C16.4305 11.9777 17.3606 11.7623 18.7233 11.7001Z" fill="white"/>
<path fill-rule="evenodd" clip-rule="evenodd" d="M22.853 13.9251C23.0759 13.9247 23.3158 13.9248 23.5746 13.9249L24.0013 13.9251C27.4189 13.9251 27.824 13.9373 29.1736 13.9985C30.4216 14.0555 31.0989 14.2636 31.5501 14.4385C32.1475 14.67 32.5733 14.9469 33.0211 15.394C33.4691 15.8411 33.7464 16.267 33.979 16.8632C34.1542 17.313 34.363 17.989 34.4198 19.2347C34.4811 20.5814 34.4944 20.986 34.4944 24.3955C34.4944 27.805 34.4811 28.2095 34.4198 29.5563C34.3627 30.8019 34.1542 31.478 33.979 31.9278C33.747 32.524 33.4691 32.9485 33.0211 33.3954C32.5731 33.8425 32.1477 34.1193 31.5501 34.3509C31.0995 34.5265 30.4216 34.7341 29.1736 34.7911C27.8242 34.8523 27.4189 34.8656 24.0013 34.8656C20.5834 34.8656 20.1783 34.8523 18.8289 34.7911C17.5809 34.7336 16.9036 34.5255 16.4521 34.3506C15.8548 34.1191 15.4281 33.8422 14.9801 33.3951C14.5321 32.948 14.2548 32.5232 14.0222 31.9267C13.847 31.4769 13.6382 30.8009 13.5814 29.5552C13.5201 28.2085 13.5078 27.8039 13.5078 24.3923C13.5078 20.9807 13.5201 20.5782 13.5814 19.2315C13.6385 17.9859 13.847 17.3098 14.0222 16.8595C14.2542 16.2633 14.5321 15.8374 14.9801 15.3903C15.4281 14.9431 15.8548 14.6663 16.4521 14.4342C16.9033 14.2586 17.5809 14.051 18.8289 13.9937C20.0097 13.9405 20.4674 13.9245 22.853 13.9219V13.9251ZM30.8339 16.0464C29.9859 16.0464 29.2978 16.7322 29.2978 17.5789C29.2978 18.4253 29.9859 19.112 30.8339 19.112C31.6819 19.112 32.3699 18.4253 32.3699 17.5789C32.3699 16.7325 31.6819 16.0458 30.8339 16.0458V16.0464ZM17.4279 24.3984C17.4279 20.7753 20.3709 17.8377 24.001 17.8376C27.6312 17.8376 30.5736 20.7752 30.5736 24.3984C30.5736 28.0216 27.6314 30.9579 24.0013 30.9579C20.3711 30.9579 17.4279 28.0216 17.4279 24.3984Z" fill="white"/>
<path d="M24.0011 20.1401C26.3574 20.1401 28.2678 22.0466 28.2678 24.3987C28.2678 26.7505 26.3574 28.6572 24.0011 28.6572C21.6445 28.6572 19.7344 26.7505 19.7344 24.3987C19.7344 22.0466 21.6445 20.1401 24.0011 20.1401Z" fill="white"/>
</svg>
