<svg width="48" height="49" viewBox="0 0 48 49" fill="none" xmlns="http://www.w3.org/2000/svg">
<path fill-rule="evenodd" clip-rule="evenodd" d="M24 0.444336C37.2548 0.444336 48 11.1689 48 24.3984C48 37.6278 37.2548 48.3524 24 48.3524C10.7452 48.3524 0 37.6278 0 24.3984C0 11.1689 10.7452 0.444336 24 0.444336ZM30.3941 21.3626C30.2774 20.4161 29.9859 19.6729 29.4683 19.0146C28.7961 18.167 27.9372 17.6594 26.6655 17.3583C25.8368 17.1576 25.5019 17.1806 25.2022 17.4539C24.923 17.7099 24.8685 18.2232 25.0818 18.5555C25.2319 18.7968 25.405 18.8832 25.8864 18.9775C26.5275 19.0952 26.9706 19.248 27.3736 19.478C28.229 19.971 28.6274 20.7425 28.6701 21.9914C28.69 22.5779 28.7408 22.7581 28.946 22.9661C29.3263 23.3463 30.0032 23.2724 30.2904 22.8174C30.3957 22.6459 30.4118 22.5713 30.4229 22.1731C30.4303 21.9266 30.4197 21.5596 30.3941 21.3626ZM30.4055 15.5555C32.4393 17.197 33.5757 19.53 33.7446 22.4298C33.8157 23.5719 33.7213 23.9439 33.3176 24.1558C32.9533 24.3521 32.5405 24.2875 32.2573 23.9919C32.0697 23.7997 31.9977 23.5368 32.0005 23.0712C32.0087 21.7839 31.7116 20.3463 31.2284 19.3488C30.6693 18.1878 29.8049 17.1998 28.7176 16.4775C27.7652 15.843 26.5047 15.4145 25.2826 15.3078C24.4898 15.2385 24.2068 15.1045 24.0546 14.7252C23.9603 14.4984 23.9852 14.1061 24.0958 13.9304C24.2002 13.7684 24.4347 13.5893 24.6005 13.5419C24.7762 13.4908 25.8001 13.5802 26.3563 13.6905C27.8745 13.9989 29.2596 14.6331 30.4055 15.5555ZM37.4522 33.597C37.3954 33.4313 37.2628 33.1756 37.1681 33.0288C36.5712 32.1293 33.3645 29.6246 31.7635 28.8054C30.8493 28.3367 30.172 28.1805 29.6699 28.3272C29.1299 28.4788 28.8457 28.7297 27.941 29.8518C27.5763 30.3016 27.2021 30.7231 27.1026 30.7893C26.8563 30.9598 26.3732 31.0971 26.0321 31.0971C25.2411 31.0923 23.8059 30.581 22.7022 29.9086C21.8449 29.3879 20.746 28.4551 19.9029 27.5318C18.9081 26.4475 18.2308 25.4911 17.6955 24.4116C17.004 23.0243 16.8288 22.1768 17.1177 21.5565C17.1887 21.4002 17.2835 21.2346 17.326 21.1824C17.3687 21.1351 17.814 20.7705 18.3065 20.3728C19.2729 19.6058 19.4292 19.4306 19.6091 18.905C19.8365 18.2374 19.775 17.5556 19.4244 16.8691C19.1544 16.3482 18.4487 15.2119 17.9371 14.478C17.2598 13.5122 15.5735 11.4478 15.2372 11.1684C14.6309 10.676 13.8541 10.5907 12.9967 10.9222C12.0921 11.2726 10.3963 12.6362 9.67156 13.5879C9.0179 14.4496 8.76693 15.0604 8.729 15.8653C8.69587 16.5281 8.75269 16.8028 9.10321 17.6503C11.8458 24.2979 15.9382 29.6056 21.5607 33.8196C24.4974 36.0212 27.5431 37.6974 30.7025 38.8432C32.545 39.5108 33.3455 39.5439 34.2881 38.9947C34.686 38.7579 35.6712 37.7494 36.2207 37.0156C37.1301 35.794 37.4665 35.2306 37.5612 34.7807C37.6275 34.473 37.5754 33.938 37.4522 33.597ZM36.2411 18.61C36.8181 20.1101 37.0948 21.4555 37.1555 23.0958C37.1651 23.4198 37.1606 24.0135 37.1396 24.4157C37.0958 25.1866 37.0539 25.3398 36.8315 25.5438C36.4741 25.8785 35.7774 25.7987 35.5132 25.3953C35.3752 25.1789 35.3559 25.0204 35.3825 24.1196C35.4592 21.4553 34.9193 19.3692 33.6187 17.2832C32.0645 14.7805 29.7398 13.0946 26.7168 12.2698C25.9459 12.0599 25.2962 11.9319 24.2858 11.7961C23.6276 11.7102 23.4835 11.6738 23.321 11.574C22.8303 11.2603 22.8238 10.466 23.313 10.1475C23.5654 9.97938 23.7516 9.97187 24.5744 10.077C26.9872 10.378 29.1402 11.0936 30.9093 12.1749C32.1773 12.951 32.9769 13.6482 34.0062 14.8693C35.095 16.1716 35.6715 17.1345 36.2411 18.61Z" fill="white"/>
</svg>
