<svg width="48" height="49" viewBox="0 0 48 49" fill="none" xmlns="http://www.w3.org/2000/svg">
<path fill-rule="evenodd" clip-rule="evenodd" d="M0 24.3984C0 37.6278 10.7452 48.3524 24 48.3524C37.2548 48.3524 48 37.6278 48 24.3984C48 11.1689 37.2548 0.444336 24 0.444336C10.7452 0.444336 0 11.1689 0 24.3984ZM39.0621 23.4816C39.059 31.3333 32.6595 37.7221 24.7911 37.7253H24.7852C22.3967 37.7245 20.0498 37.1264 17.9653 35.9916L10.4 37.9723L12.4246 30.5913C11.1757 28.4311 10.5186 25.9808 10.5196 23.4704C10.5228 15.6169 16.9248 9.22748 24.7909 9.22748C28.6086 9.22912 32.1918 10.7125 34.8862 13.4049C37.5806 16.0971 39.0637 19.6758 39.0621 23.4816Z" fill="white"/>
<path fill-rule="evenodd" clip-rule="evenodd" d="M13.8265 34.5884L18.3159 33.4129L18.749 33.6695C20.5702 34.7482 22.6578 35.3189 24.7863 35.3197H24.7911C31.3289 35.3197 36.65 30.0087 36.6526 23.4808C36.6538 20.3174 35.4212 17.343 33.1817 15.1052C30.9422 12.8674 27.964 11.6344 24.7958 11.6333C18.2529 11.6333 12.9318 16.9438 12.9292 23.4712C12.9283 25.7082 13.5554 27.8868 14.7428 29.7717L15.0248 30.2196L13.8265 34.5884ZM31.4924 26.5483C31.7411 26.6683 31.9091 26.7493 31.9808 26.8688C32.0699 27.0171 32.0699 27.7297 31.7729 28.5612C31.4756 29.3926 30.0511 30.1513 29.3659 30.2535C28.7516 30.3451 27.9742 30.3834 27.12 30.1124C26.602 29.9484 25.9379 29.7294 25.0871 29.3627C21.7442 27.922 19.4851 24.6882 19.0581 24.077C19.0282 24.0342 19.0072 24.0043 18.9956 23.9887L18.9927 23.9849C18.804 23.7336 17.5395 22.0497 17.5395 20.307C17.5395 18.6676 18.3464 17.8083 18.7178 17.4128C18.7432 17.3857 18.7666 17.3608 18.7876 17.3379C19.1144 16.9816 19.5008 16.8925 19.7385 16.8925C19.9762 16.8925 20.2141 16.8947 20.4219 16.9051C20.4475 16.9064 20.4742 16.9063 20.5018 16.9061C20.7096 16.9049 20.9686 16.9034 21.2242 17.5161C21.3225 17.7519 21.4664 18.1015 21.6181 18.4702C21.925 19.2157 22.264 20.0395 22.3236 20.1587C22.4128 20.3369 22.4722 20.5446 22.3534 20.7823C22.3355 20.8179 22.319 20.8515 22.3032 20.8836C22.214 21.0656 22.1483 21.1994 21.9968 21.3759C21.9372 21.4454 21.8756 21.5202 21.814 21.5951C21.6914 21.7442 21.5687 21.8933 21.4619 21.9995C21.2834 22.177 21.0975 22.3695 21.3055 22.7258C21.5136 23.0821 22.2292 24.2476 23.2893 25.1913C24.4288 26.2058 25.4192 26.6346 25.9212 26.8519C26.0192 26.8943 26.0986 26.9287 26.1569 26.9578C26.5133 27.136 26.7214 27.1062 26.9294 26.8688C27.1374 26.6312 27.8208 25.8295 28.0585 25.4732C28.2962 25.117 28.534 25.1764 28.8608 25.2951C29.1877 25.414 30.9408 26.2749 31.2974 26.453C31.367 26.4878 31.4321 26.5192 31.4924 26.5483Z" fill="white"/>
</svg>
